<svg width="64" height="64" viewBox="0 0 64 64" fill="none" xmlns="http://www.w3.org/2000/svg">
<path d="M45.6562 46.0081C45.6562 42.8471 47.4374 40.8931 50.8284 40.8931C54.1044 40.8931 55.9993 42.8471 55.9993 46.0081C55.9993 49.2261 54.0993 51.1801 50.8284 51.1801C47.4374 51.1801 45.6562 49.2261 45.6562 46.0081Z" fill="#F1AFD0"/>
<path d="M26.744 30.2261V36.8831H34.744C34.514 38.9495 33.5515 40.8651 32.031 42.2831C30.2643 43.7888 27.983 44.5515 25.666 44.4111C22.3 44.4111 19.7667 43.2744 18.066 41.0011C16.3653 38.7278 15.5163 35.6081 15.519 31.6421C15.519 27.6774 16.3693 24.5485 18.07 22.2551C19.7707 19.9618 22.304 18.8158 25.67 18.8171C27.8649 18.6805 30.0341 19.3501 31.77 20.7001C33.1963 21.9159 34.1224 23.6164 34.37 25.4741H41.89C41.5723 21.7314 39.798 18.263 36.949 15.8151C34.0483 13.2698 30.2887 11.9965 25.67 11.9951C20.0127 11.9951 15.6533 13.8051 12.592 17.4251C9.53066 21.0451 8 25.7841 8 31.6421C8 37.4268 9.53066 42.1288 12.592 45.7481C15.6533 49.3674 20.0127 51.1771 25.67 51.1771C29.2695 51.2923 32.8106 50.2464 35.77 48.1941V51.2111H42.262V30.2271L26.744 30.2261Z" fill="#F1AFD0"/>
</svg>
